<svg xmlns="http://www.w3.org/2000/svg" viewBox="0 0 220 460" fill="none">
  <g class="wheel">
    <rect x="8" y="78" width="28" height="54" rx="8" fill="#1b242b" stroke="#8ea4b2" stroke-width="3"/>
    <rect x="184" y="78" width="28" height="54" rx="8" fill="#1b242b" stroke="#8ea4b2" stroke-width="3"/>
    <rect x="8" y="250" width="28" height="54" rx="8" fill="#1b242b" stroke="#8ea4b2" stroke-width="3"/>
    <rect x="184" y="250" width="28" height="54" rx="8" fill="#1b242b" stroke="#8ea4b2" stroke-width="3"/>
    <rect x="14" y="330" width="22" height="46" rx="7" fill="#1b242b" stroke="#8ea4b2" stroke-width="3"/>
    <rect x="184" y="330" width="22" height="46" rx="7" fill="#1b242b" stroke="#8ea4b2" stroke-width="3"/>
  </g>
  <path class="machine-body" d="M58 36c0-16 14-28 52-28s52 12 52 28v250c8 10 16 28 16 48 0 42-22 78-68 78s-68-36-68-78c0-20 8-38 16-48V36z"/>
  <path d="M70 48h80c8 0 14 8 14 18v70H56V66c0-10 6-18 14-18z" fill="#d7e4ec" opacity="0.9"/>
  <path d="M86 58h48v28H86z" fill="#173042" opacity="0.55"/>
  <path d="M64 168h92v96H64z" fill="#0e1a22" opacity="0.28"/>
  <path d="M74 188h72M74 210h72M74 232h72" stroke="#e7f2f8" stroke-width="4" opacity="0.35"/>
  <path d="M78 318h64c10 18 16 36 16 52 0 22-14 40-48 40s-48-18-48-40c0-16 6-34 16-52z" fill="#061018" opacity="0.35"/>
  <rect x="96" y="392" width="28" height="10" rx="2" fill="#f4f8fb"/>
  <text x="110" y="292" text-anchor="middle" fill="#f4f8fb" font-family="Segoe UI, Arial" font-size="16" font-weight="700">SC</text>
</svg>
